# xmcd CD database file
#
# Track frame offsets:
#	150
#	23222
#	39455
#	62425
#
# Disc length: 1048 seconds
#
# Revision: 0
# Processed by: cddbd v1.5.1PL0 Copyright (c) Steve Scherf et al.
# Submitted via: CDex 1.51
#
DISCID=28041604
DTITLE=手塚国光 - SINCE LAST GOODBYE
DYEAR=1900
DGENRE=JPop
TTITLE0=SINCE LAST GOODBYE
TTITLE1=Road
TTITLE2=SINCE LAST GOODBYE（Original Karaoke）
TTITLE3=Road（Original Karaoke）
EXTD=
EXTT0=
EXTT1=
EXTT2=
EXTT3=
PLAYORDER=
